<?xml version="1.0" encoding="UTF-8"?>
<svg width="544" height="192" viewBox="0 0 544 192" fill="white" xmlns="http://www.w3.org/2000/svg">
<path fill-rule="evenodd" clip-rule="evenodd" d="M50.3576 9.48183V73.3577H122.285C129.732 73.3468 136.869 70.3875 142.135 65.1107C147.401 59.8394 150.36 52.6859 150.371 45.2331V28.1354C150.366 20.6772 147.401 13.5237 142.135 8.2524C136.874 2.97021 129.732 0.00543995 122.285 0H40.7615V4.05276C42.6927 4.05276 44.5912 4.54779 46.2722 5.49978C47.9531 6.45178 49.3621 7.82264 50.3576 9.47639V9.48183ZM116.513 13.5672C120.364 13.5672 124.053 15.1013 126.778 17.8267C129.503 20.5521 131.043 24.2458 131.054 28.1028V45.1951C131.043 49.052 129.503 52.7457 126.778 55.4711C124.053 58.1965 120.359 59.7252 116.513 59.7306H87.8606L84.4062 63.1904H69.702V13.5618H116.507L116.513 13.5672ZM257.32 0H171.429V13.5618H257.32V0ZM493.632 28.13V45.2223C493.626 52.6804 490.661 59.834 485.395 65.1107C480.13 70.382 472.987 73.3468 465.54 73.3577H384.017V69.294C385.942 69.294 387.841 68.7935 389.516 67.8416C391.197 66.8896 392.601 65.5187 393.591 63.865V0H465.545C472.992 0.00543995 480.13 2.97021 485.395 8.24696C490.661 13.5237 493.621 20.6718 493.632 28.13V28.13ZM412.935 13.5618V59.7524L459.741 59.7197C463.587 59.7088 467.27 58.1748 469.984 55.4494C472.704 52.724 474.233 49.0357 474.249 45.1842V28.0919C474.238 24.2404 472.704 20.5521 469.984 17.8321C467.264 15.1067 463.581 13.5727 459.741 13.5618H412.935ZM323.916 90.8036H409.699C414.241 90.8036 418.593 92.6151 421.808 95.8301C425.023 99.0451 426.829 103.402 426.84 107.956V118.623H407.495V107.977C407.495 107.765 407.479 107.564 407.441 107.357C407.398 107.113 407.332 106.873 407.24 106.645C407.196 106.53 407.142 106.416 407.087 106.307C407.033 106.199 406.968 106.095 406.902 105.992C406.843 105.894 406.772 105.802 406.701 105.714L406.576 105.568L406.451 105.432C405.776 104.757 404.862 104.376 403.911 104.371H349.397V117.922L352.851 121.382V146.987C352.851 147.945 353.232 148.859 353.907 149.533C354.581 150.208 355.495 150.589 356.452 150.594H404.063L404.172 150.583L404.34 150.567C404.661 150.529 404.977 150.442 405.276 150.317C405.711 150.137 406.108 149.871 406.44 149.533C406.772 149.201 407.038 148.804 407.218 148.364C407.398 147.928 407.49 147.455 407.49 146.982V136.325H426.834V146.982C426.834 151.535 425.023 155.898 421.813 159.113C418.598 162.333 414.246 164.145 409.699 164.145H350.643C346.1 164.145 341.743 162.328 338.528 159.113C335.313 155.893 333.507 151.53 333.501 146.982V100.285C332.506 98.6317 331.102 97.2608 329.421 96.3088C327.74 95.3568 325.847 94.8618 323.916 94.8563V90.8036V90.8036ZM190.768 59.7796H257.315V73.3468H161.849V69.2831C163.775 69.2831 165.674 68.7827 167.349 67.8361C169.025 66.8841 170.433 65.5133 171.424 63.8595V24.0446H184.713L190.55 29.8925H243.492V43.4488H190.763V59.7796H190.768ZM211.652 95.8246C214.862 99.0396 216.673 103.402 216.678 107.956V123.884C216.673 128.432 214.867 132.795 211.652 136.015C208.442 139.23 204.085 141.041 199.543 141.047H147.319V164.139H118.4V160.087C120.326 160.087 122.225 159.586 123.9 158.634C125.576 157.682 126.979 156.311 127.975 154.663V90.7981H199.543C204.085 90.8036 208.442 92.6151 211.652 95.8301V95.8246ZM196.273 126.413C196.948 125.739 197.323 124.825 197.329 123.873V107.956C197.329 107.004 196.948 106.09 196.273 105.415C195.599 104.741 194.685 104.36 193.733 104.36H165.913L162.459 100.9H147.314V127.474H193.733C194.25 127.474 194.755 127.36 195.212 127.148C195.599 126.968 195.958 126.724 196.268 126.413H196.273ZM88.8833 90.809H0V94.8618C1.92574 94.8618 3.82428 95.3622 5.50522 96.3142C7.18617 97.2662 8.58967 98.6317 9.58518 100.285V117.1C9.59606 121.648 11.4021 126.005 14.6171 129.22C17.8267 132.435 22.1841 134.242 26.721 134.247H83.0843C84.0363 134.247 84.9502 134.622 85.6193 135.297C86.2939 135.966 86.6747 136.88 86.6747 137.837V146.971C86.6747 147.134 86.6638 147.292 86.642 147.455C86.6311 147.548 86.6148 147.64 86.593 147.733C86.5495 147.945 86.4843 148.151 86.4027 148.347C86.2231 148.783 85.9566 149.18 85.6247 149.511C85.2929 149.843 84.8958 150.11 84.4606 150.289C84.0254 150.469 83.5576 150.561 83.0843 150.561H32.52C31.568 150.561 30.6541 150.181 29.9795 149.506C29.305 148.831 28.9296 147.918 28.9296 146.96V143.092H9.58518V164.123H88.8833C93.4256 164.118 97.783 162.306 100.993 159.091C104.202 155.871 106.014 151.513 106.019 146.96V137.826C106.014 133.279 104.202 128.916 100.993 125.701C97.783 122.486 93.4256 120.674 88.8833 120.669H32.52C31.568 120.669 30.6541 120.288 29.9795 119.614C29.528 119.162 29.2125 118.607 29.0493 117.998C28.9677 117.699 28.9296 117.389 28.9242 117.068V104.333H83.1604L83.3672 104.344C83.4814 104.354 83.5956 104.365 83.7044 104.387C83.9601 104.436 84.2104 104.507 84.4497 104.605C84.8849 104.784 85.282 105.051 85.6139 105.383C85.9457 105.72 86.2123 106.112 86.3918 106.552L86.4734 106.764C86.5006 106.846 86.5278 106.928 86.5495 107.009C86.6257 107.308 86.6692 107.613 86.6692 107.923V112.074H106.014V107.923C106.003 103.375 104.197 99.0179 100.987 95.8029C97.7776 92.5879 93.4202 90.7818 88.8833 90.7764V90.809ZM467.873 134.252V150.594H543.962V164.156H438.949V160.103C440.875 160.103 442.773 159.603 444.454 158.651C446.135 157.699 447.539 156.333 448.534 154.679V90.8145H534.431V104.376H467.884V120.707H498.974L502.428 124.167H520.603V134.258H467.873V134.252ZM242.622 90.809V94.8618C244.455 94.8618 246.261 95.3133 247.877 96.1728C249.498 97.0323 250.879 98.2835 251.908 99.8012L217.076 164.156H236.98L243.949 151.285H263.489L266.944 147.825H296.749L300.862 155.436C299.828 156.883 298.463 158.063 296.885 158.879C295.307 159.69 293.556 160.114 291.777 160.114V164.167H325.521L285.82 90.8145L242.627 90.7981L242.622 90.809ZM289.438 134.252H253.186L269.364 104.354H273.248L289.438 134.252ZM296.488 68.0537C298.066 68.8697 299.817 69.2886 301.596 69.2886V73.3522H267.852L307.547 0H350.768V4.05276C348.934 4.05276 347.128 4.50427 345.513 5.36379C343.892 6.2233 342.51 7.47449 341.482 8.99223L376.319 73.3468H356.387L349.419 60.4541H329.878L326.424 56.9943H296.618L292.506 64.6102C293.539 66.0573 294.905 67.2377 296.482 68.0483L296.488 68.0537ZM324.03 13.5618H320.146L303.995 43.4543H340.214L324.036 13.5618H324.03ZM539.964 90.8145V91.6468H538.897V94.9706H538V91.6468H536.781V90.8145H539.958H539.964ZM544 94.9651V90.8145H543.048L542.357 92.7293H542.276L541.585 90.8145H540.654V94.9651H541.481V92.5335H541.557L542.129 94.0512H542.52L543.092 92.5335H543.168V94.9651H543.995H544Z" fill="white"/>
</svg>
